<svg xmlns="http://www.w3.org/2000/svg" xmlns:xlink="http://www.w3.org/1999/xlink" width="640px" height="260px" viewBox="0 0 640 260"> <!-- Generator: Sketch 51.1 (57501) - http://www.bohemiancoding.com/sketch --> <title>domain-logo</title> <desc>Created with Sketch.</desc> <defs></defs> <g id="domain-logo" stroke="none" stroke-width="1" fill="none" fill-rule="evenodd"> <g id="Logo-/-Step-outs-/-Domain" transform="translate(114.000000, 89.000000)" fill="#0EA800"> <g id="Page-1"> <path d="M30.6588274,17.247562 C40.2415334,17.247562 48.4668431,20.3493577 54.4433143,26.2189826 C60.0948674,31.8127736 63.2083691,39.5978122 63.2083691,48.1427285 L63.2083691,48.3829708 C63.2083691,66.4373319 49.8212639,79.0592499 30.6588274,79.0788252 L13.0698041,79.0788252 L13.0561171,17.247562 L30.6588274,17.247562 Z M30.6588274,4.96198334 L-0.000119017649,4.97562673 L-0.000119017649,91.3472013 L30.6588274,91.3472013 C43.6275855,91.3472013 55.391885,86.9184373 63.7820342,78.8824789 C72.0609018,70.9574473 76.6216582,60.0439194 76.6216582,48.1427285 L76.6216582,47.9149431 C76.6216582,36.0392595 72.0567362,25.1636958 63.767157,17.2962037 C55.3823636,9.34091925 43.6258002,4.96198334 30.6588274,4.96198334 L30.6588274,4.96198334 Z" id="Fill-1"></path> <path d="M130.65573,74.5657688 C126.900723,78.687853 121.722266,80.9562153 116.074283,80.9562153 C104.658705,80.9562153 95.7103633,71.3180481 95.7008419,59.0200124 L95.7008419,58.7922271 C95.7008419,46.3559779 104.3564,36.9800011 115.832677,36.9800011 C127.336923,36.9800011 136.345964,46.6602849 136.345964,59.0158601 L136.345964,59.2744913 C136.345964,65.1079316 134.32564,70.5368155 130.65573,74.5657688 M116.069522,25.2745632 C106.968243,25.2745632 98.5382226,28.8230317 92.336213,35.2698314 C86.2413191,41.5867223 82.8832362,50.0201187 82.8832362,59.0200124 L82.8832362,59.2744913 C82.8832362,78.0501727 97.3599479,92.7601229 115.838033,92.7601229 L115.840413,92.7601229 C134.524994,92.7530046 149.161189,77.9303481 149.161189,59.0158601 L149.161189,58.782736 C149.161189,49.8433477 145.839407,41.4651182 139.806402,35.1950894 C133.650214,28.7987109 125.220194,25.2745632 116.069522,25.2745632" id="Fill-4"></path> <path d="M387.400543,25.2550472 C379.69058,25.2550472 373.534392,27.9487275 368.662405,33.4731152 L368.662405,26.5612538 L356.079264,26.5612538 L356.079264,91.3252532 L368.662405,91.3252532 L368.662405,54.4999564 C368.662405,44.3083419 375.319062,37.1894568 384.851185,37.1894568 C394.407112,37.1894568 399.668883,43.0875548 399.668883,53.7958387 L399.668883,91.3252532 L412.249643,91.3252532 L412.249643,51.557729 C412.249643,35.5819092 402.496742,25.2550472 387.400543,25.2550472" id="Fill-6"></path> <path d="M302.983467,77.4998694 C299.62955,80.1733812 295.005119,81.6468676 289.965912,81.6468676 C283.368168,81.6468676 276.681757,78.0978059 276.681757,71.3093282 L276.681757,71.0667131 C276.681757,64.5172913 282.557063,60.6063831 292.397442,60.6063831 C299.063621,60.6063831 304.096282,61.6687882 308.155974,62.7578868 L308.155974,67.0371666 C308.155974,71.1847581 306.367734,74.8014435 302.983467,77.4998694 M292.992531,25.6081145 C284.82673,25.6081145 278.272428,27.1729523 270.359539,31.0067457 L268.883125,31.7209477 L272.78869,42.6415939 L274.61085,41.7423163 C280.591487,38.8380532 285.978225,37.5425241 292.065978,37.5425241 C302.466931,37.5425241 307.832246,42.3319482 308.017914,51.7743624 C303.173895,50.5316273 298.371533,49.7195488 291.484577,49.7195488 C283.440174,49.7195488 276.657358,51.6017438 271.860352,55.1525851 C266.699152,58.9893444 263.977218,64.653132 263.984359,71.5317748 L263.984359,71.7702376 C263.984359,85.4664244 276.182478,92.6339512 288.23123,92.6339512 C297.612201,92.6339512 304.012375,88.8244786 308.021484,85.1004256 L308.021484,91.3253719 L320.498104,91.3253719 L320.498104,52.1528182 C320.498104,43.965003 318.207015,37.4879505 313.69089,32.9043637 C308.933755,28.0609592 301.971222,25.6081145 292.992531,25.6081145" id="Fill-8"></path> <polygon id="Fill-10" points="331.930702 91.3229398 344.52753 91.3229398 344.52753 26.5607199 331.930702 26.5607199"></polygon> <path d="M338.227926,0.000118638199 C333.19824,0.000118638199 329.106413,4.08067948 329.106413,9.09255018 C329.106413,14.1026413 333.19824,18.1808294 338.227926,18.1808294 C343.260587,18.1808294 347.354199,14.1026413 347.354199,9.09255018 C347.354199,4.08067948 343.260587,0.000118638199 338.227926,0.000118638199" id="Fill-12"></path> <polygon id="Fill-13" points="227.796031 22.2696949 206.198493 36.3591674 184.599766 22.2696949 168.882295 32.5283399 168.882295 26.5940572 156.729998 26.5940572 156.729998 91.377632 169.286955 91.377632 169.286955 46.9808453 184.599766 36.9938817 199.919717 46.9808453 199.928644 91.377632 212.500478 91.377632 212.500478 46.9808453 227.796031 36.9754928 243.106462 46.9672019 243.110627 91.377632 255.67175 91.377632 255.662228 40.504386"></polygon> <path d="M30.6588274,17.247562 C40.2415334,17.247562 48.4668431,20.3493577 54.4433143,26.2189826 C60.0948674,31.8127736 63.2083691,39.5978122 63.2083691,48.1427285 L63.2083691,48.3829708 C63.2083691,66.4373319 49.8212639,79.0592499 30.6588274,79.0788252 L13.0698041,79.0788252 L13.0561171,17.247562 L30.6588274,17.247562 Z M30.6588274,4.96198334 L-0.000119017649,4.97562673 L-0.000119017649,91.3472013 L30.6588274,91.3472013 C43.6275855,91.3472013 55.391885,86.9184373 63.7820342,78.8824789 C72.0609018,70.9574473 76.6216582,60.0439194 76.6216582,48.1427285 L76.6216582,47.9149431 C76.6216582,36.0392595 72.0567362,25.1636958 63.767157,17.2962037 C55.3823636,9.34091925 43.6258002,4.96198334 30.6588274,4.96198334 L30.6588274,4.96198334 Z" id="Fill-14"></path> <path d="M130.65573,74.5657688 C126.900723,78.687853 121.722266,80.9562153 116.074283,80.9562153 C104.658705,80.9562153 95.7103633,71.3180481 95.7008419,59.0200124 L95.7008419,58.7922271 C95.7008419,46.3559779 104.3564,36.9800011 115.832677,36.9800011 C127.336923,36.9800011 136.345964,46.6602849 136.345964,59.0158601 L136.345964,59.2744913 C136.345964,65.1079316 134.32564,70.5368155 130.65573,74.5657688 M116.069522,25.2745632 C106.968243,25.2745632 98.5382226,28.8230317 92.336213,35.2698314 C86.2413191,41.5867223 82.8832362,50.0201187 82.8832362,59.0200124 L82.8832362,59.2744913 C82.8832362,78.0501727 97.3599479,92.7601229 115.838033,92.7601229 L115.840413,92.7601229 C134.524994,92.7530046 149.161189,77.9303481 149.161189,59.0158601 L149.161189,58.782736 C149.161189,49.8433477 145.839407,41.4651182 139.806402,35.1950894 C133.650214,28.7987109 125.220194,25.2745632 116.069522,25.2745632" id="Fill-15"></path> <path d="M387.400543,25.2550472 C379.69058,25.2550472 373.534392,27.9487275 368.662405,33.4731152 L368.662405,26.5612538 L356.079264,26.5612538 L356.079264,91.3252532 L368.662405,91.3252532 L368.662405,54.4999564 C368.662405,44.3083419 375.319062,37.1894568 384.851185,37.1894568 C394.407112,37.1894568 399.668883,43.0875548 399.668883,53.7958387 L399.668883,91.3252532 L412.249643,91.3252532 L412.249643,51.557729 C412.249643,35.5819092 402.496742,25.2550472 387.400543,25.2550472" id="Fill-16"></path> <path d="M302.983467,77.4998694 C299.62955,80.1733812 295.005119,81.6468676 289.965912,81.6468676 C283.368168,81.6468676 276.681757,78.0978059 276.681757,71.3093282 L276.681757,71.0667131 C276.681757,64.5172913 282.557063,60.6063831 292.397442,60.6063831 C299.063621,60.6063831 304.096282,61.6687882 308.155974,62.7578868 L308.155974,67.0371666 C308.155974,71.1847581 306.367734,74.8014435 302.983467,77.4998694 M292.992531,25.6081145 C284.82673,25.6081145 278.272428,27.1729523 270.359539,31.0067457 L268.883125,31.7209477 L272.78869,42.6415939 L274.61085,41.7423163 C280.591487,38.8380532 285.978225,37.5425241 292.065978,37.5425241 C302.466931,37.5425241 307.832246,42.3319482 308.017914,51.7743624 C303.173895,50.5316273 298.371533,49.7195488 291.484577,49.7195488 C283.440174,49.7195488 276.657358,51.6017438 271.860352,55.1525851 C266.699152,58.9893444 263.977218,64.653132 263.984359,71.5317748 L263.984359,71.7702376 C263.984359,85.4664244 276.182478,92.6339512 288.23123,92.6339512 C297.612201,92.6339512 304.012375,88.8244786 308.021484,85.1004256 L308.021484,91.3253719 L320.498104,91.3253719 L320.498104,52.1528182 C320.498104,43.965003 318.207015,37.4879505 313.69089,32.9043637 C308.933755,28.0609592 301.971222,25.6081145 292.992531,25.6081145" id="Fill-17"></path> <polygon id="Fill-18" points="331.930702 91.3229398 344.52753 91.3229398 344.52753 26.5607199 331.930702 26.5607199"></polygon> <path d="M338.227926,0.000118638199 C333.19824,0.000118638199 329.106413,4.08067948 329.106413,9.09255018 C329.106413,14.1026413 333.19824,18.1808294 338.227926,18.1808294 C343.260587,18.1808294 347.354199,14.1026413 347.354199,9.09255018 C347.354199,4.08067948 343.260587,0.000118638199 338.227926,0.000118638199" id="Fill-19"></path> <polygon id="Fill-20" points="227.796031 22.2696949 206.198493 36.3591674 184.599766 22.2696949 168.882295 32.5283399 168.882295 26.5940572 156.729998 26.5940572 156.729998 91.377632 169.286955 91.377632 169.286955 46.9808453 184.599766 36.9938817 199.919717 46.9808453 199.928644 91.377632 212.500478 91.377632 212.500478 46.9808453 227.796031 36.9754928 243.106462 46.9672019 243.110627 91.377632 255.67175 91.377632 255.662228 40.504386"></polygon> </g> </g> </g> </svg>
